<svg xmlns="http://www.w3.org/2000/svg" xmlns:xlink="http://www.w3.org/1999/xlink" version="1.1" width="256" height="256" viewBox="0 0 256 256" xml:space="preserve">

<defs>
</defs>
<g style="stroke: none; stroke-width: 0; stroke-dasharray: none; stroke-linecap: butt; stroke-linejoin: miter; stroke-miterlimit: 10; fill: none; fill-rule: nonzero; opacity: 1;" transform="translate(1.4065934065934016 1.4065934065934016) scale(2.81 2.81)" >
	<path d="M 53.279 14.669 c -0.085 0 -0.171 -0.011 -0.255 -0.033 c -5.23 -1.378 -10.819 -1.378 -16.048 0 c -0.37 0.097 -0.762 -0.024 -1.011 -0.313 c -0.25 -0.289 -0.313 -0.695 -0.164 -1.046 c 2.357 -5.526 5.221 -9.902 8.513 -13.005 c 0.386 -0.363 0.986 -0.363 1.372 0 c 3.292 3.102 6.156 7.478 8.513 13.004 c 0.149 0.352 0.086 0.757 -0.163 1.046 C 53.844 14.546 53.565 14.669 53.279 14.669 z M 45 11.598 c 2.198 0 4.391 0.216 6.542 0.645 c -1.89 -4.001 -4.123 -7.361 -6.542 -9.84 c -2.419 2.479 -4.652 5.84 -6.542 9.84 C 40.609 11.814 42.801 11.598 45 11.598 z" style="stroke: none; stroke-width: 1; stroke-dasharray: none; stroke-linecap: butt; stroke-linejoin: miter; stroke-miterlimit: 10; fill: rgb(0,0,0); fill-rule: nonzero; opacity: 1;" transform=" matrix(1 0 0 1 0 0) " stroke-linecap="round" />
	<path d="M 73.005 29.709 c -0.354 0 -0.684 -0.188 -0.864 -0.496 c -2.736 -4.693 -6.662 -8.619 -11.354 -11.354 c -0.33 -0.192 -0.521 -0.556 -0.493 -0.937 c 0.027 -0.381 0.27 -0.712 0.624 -0.855 c 5.576 -2.243 10.685 -3.312 15.224 -3.18 c 0.529 0.016 0.954 0.441 0.971 0.97 c 0.134 4.523 -0.936 9.646 -3.18 15.225 c -0.143 0.354 -0.475 0.597 -0.855 0.625 C 73.053 29.708 73.029 29.709 73.005 29.709 z M 63.527 17.214 c 3.659 2.445 6.813 5.599 9.259 9.259 c 1.494 -4.169 2.293 -8.128 2.335 -11.594 C 71.654 14.921 67.695 15.72 63.527 17.214 z" style="stroke: none; stroke-width: 1; stroke-dasharray: none; stroke-linecap: butt; stroke-linejoin: miter; stroke-miterlimit: 10; fill: rgb(0,0,0); fill-rule: nonzero; opacity: 1;" transform=" matrix(1 0 0 1 0 0) " stroke-linecap="round" />
	<path d="M 16.995 29.709 c -0.024 0 -0.048 -0.001 -0.073 -0.002 c -0.381 -0.028 -0.712 -0.27 -0.855 -0.625 c -2.243 -5.578 -3.313 -10.7 -3.18 -15.224 c 0.016 -0.529 0.441 -0.955 0.97 -0.97 c 4.519 -0.132 9.646 0.936 15.224 3.18 c 0.354 0.143 0.597 0.474 0.625 0.855 c 0.027 0.381 -0.164 0.744 -0.494 0.937 c -4.692 2.736 -8.618 6.662 -11.354 11.354 C 17.679 29.521 17.349 29.709 16.995 29.709 z M 14.879 14.879 c 0.042 3.467 0.841 7.425 2.335 11.594 c 2.446 -3.66 5.599 -6.813 9.259 -9.259 C 22.304 15.72 18.346 14.921 14.879 14.879 z" style="stroke: none; stroke-width: 1; stroke-dasharray: none; stroke-linecap: butt; stroke-linejoin: miter; stroke-miterlimit: 10; fill: rgb(0,0,0); fill-rule: nonzero; opacity: 1;" transform=" matrix(1 0 0 1 0 0) " stroke-linecap="round" />
	<path d="M 76.331 54.279 c -0.235 0 -0.469 -0.083 -0.653 -0.243 c -0.289 -0.25 -0.411 -0.643 -0.313 -1.012 c 0.688 -2.615 1.038 -5.315 1.038 -8.024 s -0.35 -5.409 -1.038 -8.024 c -0.098 -0.37 0.024 -0.762 0.313 -1.012 c 0.29 -0.25 0.694 -0.313 1.047 -0.163 c 5.526 2.357 9.901 5.222 13.004 8.513 c 0.363 0.385 0.363 0.987 0 1.372 c -3.101 3.291 -7.477 6.155 -13.004 8.513 C 76.597 54.253 76.464 54.279 76.331 54.279 z M 77.758 38.458 c 0.428 2.151 0.645 4.344 0.645 6.542 s -0.216 4.391 -0.645 6.542 c 4.001 -1.891 7.361 -4.123 9.84 -6.542 C 85.118 42.581 81.759 40.348 77.758 38.458 z" style="stroke: none; stroke-width: 1; stroke-dasharray: none; stroke-linecap: butt; stroke-linejoin: miter; stroke-miterlimit: 10; fill: rgb(0,0,0); fill-rule: nonzero; opacity: 1;" transform=" matrix(1 0 0 1 0 0) " stroke-linecap="round" />
	<path d="M 13.669 54.279 c -0.133 0 -0.266 -0.026 -0.393 -0.08 c -5.527 -2.357 -9.902 -5.222 -13.004 -8.513 c -0.363 -0.385 -0.363 -0.987 0 -1.372 c 3.103 -3.292 7.479 -6.156 13.005 -8.513 c 0.349 -0.149 0.757 -0.087 1.046 0.164 c 0.289 0.25 0.411 0.642 0.313 1.011 c -0.689 2.615 -1.039 5.314 -1.039 8.024 s 0.35 5.409 1.039 8.024 c 0.098 0.369 -0.024 0.762 -0.313 1.012 C 14.138 54.196 13.905 54.279 13.669 54.279 z M 2.402 45 c 2.479 2.419 5.839 4.652 9.84 6.542 c -0.428 -2.151 -0.645 -4.344 -0.645 -6.542 c 0 -2.199 0.216 -4.391 0.645 -6.542 C 8.242 40.348 4.882 42.581 2.402 45 z" style="stroke: none; stroke-width: 1; stroke-dasharray: none; stroke-linecap: butt; stroke-linejoin: miter; stroke-miterlimit: 10; fill: rgb(0,0,0); fill-rule: nonzero; opacity: 1;" transform=" matrix(1 0 0 1 0 0) " stroke-linecap="round" />
	<path d="M 75.379 77.123 c -4.333 0 -9.193 -1.071 -14.461 -3.19 c -0.354 -0.143 -0.597 -0.475 -0.624 -0.855 c -0.028 -0.381 0.163 -0.744 0.493 -0.937 c 4.692 -2.735 8.618 -6.661 11.354 -11.354 c 0.192 -0.33 0.553 -0.527 0.937 -0.493 c 0.381 0.027 0.713 0.27 0.855 0.624 c 2.244 5.579 3.313 10.701 3.18 15.224 c -0.017 0.529 -0.441 0.954 -0.971 0.971 C 75.89 77.119 75.635 77.123 75.379 77.123 z M 63.527 72.786 c 4.17 1.494 8.128 2.293 11.594 2.335 c -0.042 -3.466 -0.841 -7.424 -2.335 -11.594 C 70.341 67.187 67.187 70.341 63.527 72.786 z" style="stroke: none; stroke-width: 1; stroke-dasharray: none; stroke-linecap: butt; stroke-linejoin: miter; stroke-miterlimit: 10; fill: rgb(0,0,0); fill-rule: nonzero; opacity: 1;" transform=" matrix(1 0 0 1 0 0) " stroke-linecap="round" />
	<path d="M 45 90 c -0.247 0 -0.493 -0.091 -0.686 -0.272 c -3.291 -3.103 -6.155 -7.478 -8.513 -13.004 c -0.15 -0.352 -0.086 -0.758 0.163 -1.047 c 0.25 -0.289 0.643 -0.412 1.012 -0.313 c 5.23 1.377 10.818 1.377 16.048 0 c 0.371 -0.101 0.762 0.023 1.012 0.313 c 0.25 0.288 0.313 0.694 0.163 1.046 c -2.358 5.527 -5.223 9.903 -8.513 13.004 C 45.493 89.909 45.247 90 45 90 z M 38.458 77.758 c 1.89 4.001 4.123 7.36 6.542 9.84 c 2.419 -2.479 4.651 -5.839 6.542 -9.84 C 47.239 78.615 42.761 78.613 38.458 77.758 z" style="stroke: none; stroke-width: 1; stroke-dasharray: none; stroke-linecap: butt; stroke-linejoin: miter; stroke-miterlimit: 10; fill: rgb(0,0,0); fill-rule: nonzero; opacity: 1;" transform=" matrix(1 0 0 1 0 0) " stroke-linecap="round" />
	<path d="M 14.621 77.123 c -0.256 0 -0.51 -0.004 -0.763 -0.011 c -0.529 -0.017 -0.954 -0.441 -0.97 -0.971 c -0.133 -4.524 0.937 -9.646 3.18 -15.224 c 0.143 -0.354 0.474 -0.597 0.855 -0.624 c 0.382 -0.037 0.744 0.163 0.937 0.493 c 2.735 4.691 6.661 8.617 11.354 11.354 c 0.33 0.192 0.521 0.556 0.494 0.937 c -0.028 0.381 -0.27 0.713 -0.625 0.855 C 23.814 76.051 18.954 77.123 14.621 77.123 z M 17.214 63.527 c -1.494 4.168 -2.292 8.127 -2.335 11.594 c 3.466 -0.042 7.424 -0.841 11.594 -2.335 C 22.813 70.34 19.659 67.187 17.214 63.527 z" style="stroke: none; stroke-width: 1; stroke-dasharray: none; stroke-linecap: butt; stroke-linejoin: miter; stroke-miterlimit: 10; fill: rgb(0,0,0); fill-rule: nonzero; opacity: 1;" transform=" matrix(1 0 0 1 0 0) " stroke-linecap="round" />
	<path d="M 45 70.144 c -13.864 0 -25.143 -11.279 -25.143 -25.144 c 0 -13.864 11.279 -25.143 25.143 -25.143 c 13.864 0 25.144 11.279 25.144 25.143 C 70.144 58.864 58.864 70.144 45 70.144 z M 45 21.857 c -12.761 0 -23.143 10.382 -23.143 23.143 c 0 12.762 10.382 23.144 23.143 23.144 c 12.762 0 23.144 -10.382 23.144 -23.144 C 68.144 32.239 57.762 21.857 45 21.857 z" style="stroke: none; stroke-width: 1; stroke-dasharray: none; stroke-linecap: butt; stroke-linejoin: miter; stroke-miterlimit: 10; fill: rgb(0,0,0); fill-rule: nonzero; opacity: 1;" transform=" matrix(1 0 0 1 0 0) " stroke-linecap="round" />
</g>
</svg>